<?xml version="1.0" encoding="utf-8"?>
<!-- Generator: Adobe Illustrator 25.2.3, SVG Export Plug-In . SVG Version: 6.00 Build 0)  -->
<svg version="1.1" id="圖層_1" xmlns="http://www.w3.org/2000/svg" xmlns:xlink="http://www.w3.org/1999/xlink" x="0px" y="0px"
	 viewBox="0 0 65.4 65.4" style="enable-background:new 0 0 65.4 65.4;" xml:space="preserve">
<style type="text/css">
	.st0{fill:url(#SVGID_1_);}
	.st1{fill:url(#SVGID_2_);}
	.st2{fill:#FFFFFF;}
</style>
<g>
	<linearGradient id="SVGID_1_" gradientUnits="userSpaceOnUse" x1="32.6996" y1="51.5168" x2="32.6996" y2="3.7534">
		<stop  offset="0" style="stop-color:#FF820A"/>
		<stop  offset="0.2511" style="stop-color:#FF920A"/>
		<stop  offset="1" style="stop-color:#FFAF4B"/>
	</linearGradient>
	<path class="st0" d="M43.3,38.8c5.8-3.6,9.7-9.9,9.7-17.2c0-11.2-9.1-20.3-20.3-20.3c-11.2,0-20.3,9.1-20.3,20.3
		c0,7.6,4.1,14.1,10.3,17.6c0,0,0,0,0,0c0.4,0.2,0.8,0.4,1.2,0.7c0.1,0,0.2,0.1,0.3,0.2c2.4,1.1,4.5,2.9,5.1,5.4l0.6,2.2L31,52l0,0
		l2.1,8.1l2.1-8.1h0l1.2-4.6l0.6-2.3c0.6-2.5,2.6-4.4,4.9-5.5c0.1-0.1,0.3-0.1,0.4-0.2c0.2-0.1,0.4-0.2,0.6-0.4
		C43,39,43.1,38.9,43.3,38.8z"/>
	<linearGradient id="SVGID_2_" gradientUnits="userSpaceOnUse" x1="18.1389" y1="39.5472" x2="55.537" y2="17.9555">
		<stop  offset="0" style="stop-color:#FF7300"/>
		<stop  offset="0.146" style="stop-color:#F97C01"/>
		<stop  offset="0.3879" style="stop-color:#EA9602"/>
		<stop  offset="0.4552" style="stop-color:#E59E03"/>
		<stop  offset="0.733" style="stop-color:#FBB03B"/>
		<stop  offset="0.9944" style="stop-color:#F15A24"/>
	</linearGradient>
	<path class="st1" d="M32.7,1.3C43.9,1.3,53,10.4,53,21.6c0,7.3-3.9,13.7-9.7,17.2c-0.2,0.1-0.3,0.2-0.5,0.3
		c-0.2,0.1-0.4,0.2-0.6,0.4c-0.1,0.1-0.3,0.1-0.4,0.2c-2.3,1.2-4.3,3-4.9,5.5l-0.6,2.3L35.1,52h0l-2.1,8.1L31,52l-1.1-4.4l-0.6-2.2
		c-0.6-2.5-2.7-4.3-5.1-5.4c-0.1,0-0.2-0.1-0.3-0.2c-0.4-0.2-0.8-0.4-1.2-0.7c0,0,0,0,0,0c-6.1-3.5-10.3-10.1-10.3-17.6
		C12.4,10.4,21.5,1.3,32.7,1.3 M32.7,0C20.8,0,11.1,9.7,11.1,21.6c0,7.7,4.2,14.9,10.9,18.7l0.3,0.2h0c0.3,0.2,0.7,0.4,1,0.5l0.1,0
		c0.1,0,0.2,0.1,0.3,0.1c1.4,0.6,3.7,2.1,4.4,4.5l0.6,2.2l1.1,4.4l2.1,8.1l1.3,5l1.3-5l2.1-8.1l1.2-4.6l0.6-2.3
		c0.6-2.5,2.9-4,4.2-4.7c0.1,0,0.2-0.1,0.3-0.2l0.1-0.1c0.2-0.1,0.5-0.2,0.7-0.4c0.1-0.1,0.3-0.2,0.4-0.3l0.1-0.1
		c6.4-4,10.3-10.8,10.3-18.4C54.3,9.7,44.6,0,32.7,0L32.7,0z"/>
	<g>
		<path class="st2" d="M42.1,26.3C42,26.3,42,26.3,42.1,26.3c-0.4-0.1-1,0-1.3,0.4c-0.1,0.1,0,0-0.1,0.1c-1.9,3.3-5.2,4.9-9,4.6
			c-3.3-0.2-6.8-2-8.6-5c-1.4-2.3-1-5,0.4-7.3c0.3-0.5-0.3-1-0.7-1.1c-0.3-0.1-0.6,0-0.8,0.2c-0.2,0.2-0.4,0.4-0.5,0.6
			c-1.9,3.2-1.5,6.9,0.9,9.7c2.4,2.8,6,4.5,9.7,4.8c4.3,0.4,8.4-1.4,10.4-5.3c0,0,0.1-0.1,0.1-0.1C42.9,27.2,42.6,26.6,42.1,26.3"/>
		<path class="st2" d="M30.1,12.9c0,1.3-1.7,2.4-3.7,2.4c-2,0-3.7-1.1-3.7-2.4c0-1.3,1.7-2.4,3.7-2.4C28.4,10.5,30.1,11.5,30.1,12.9
			z"/>
		<path class="st2" d="M49.4,20.7c0,1.3-1.7,2.4-3.7,2.4c-2,0-3.7-1.1-3.7-2.4c0-1.3,1.7-2.4,3.7-2.4C47.8,18.3,49.4,19.4,49.4,20.7
			z"/>
	</g>
</g>
</svg>
