<?xml version="1.0" encoding="utf-8"?>
<!-- Generator: Adobe Illustrator 25.2.3, SVG Export Plug-In . SVG Version: 6.00 Build 0)  -->
<svg version="1.1" id="圖層_1" xmlns="http://www.w3.org/2000/svg" xmlns:xlink="http://www.w3.org/1999/xlink" x="0px" y="0px"
	 viewBox="0 0 65.4 65.4" style="enable-background:new 0 0 65.4 65.4;" xml:space="preserve">
<style type="text/css">
	.st0{clip-path:url(#SVGID_8_);fill:#8ADB2C;}
	.st1{fill:#FFFFFF;}
	.st2{fill:url(#SVGID_9_);}
</style>
<g>
	<g>
		<g>
			<defs>
				<path id="SVGID_1_" d="M43.2,39c5.7-3.5,9.6-9.9,9.6-17.1c0-11.1-9-20.1-20.1-20.1s-20.1,9-20.1,20.1c0,7.5,4.1,14,10.2,17.5
					c0,0,0,0,0,0c0.4,0.2,0.8,0.4,1.2,0.6c0.1,0,0.2,0.1,0.3,0.2c2.3,1.1,4.4,2.9,5.1,5.4l0.6,2.2l1.1,4.4v0l2,8l2-8c0,0,0,0,0,0
					l1.1-4.5l0.6-2.3c0.6-2.5,2.6-4.3,4.9-5.5c0.1-0.1,0.3-0.1,0.4-0.2c0.2-0.1,0.4-0.2,0.6-0.3C42.9,39.2,43.1,39.1,43.2,39z"/>
			</defs>
			<linearGradient id="SVGID_2_" gradientUnits="userSpaceOnUse" x1="33.9278" y1="59.429" x2="32.0607" y2="2.4053">
				<stop  offset="0" style="stop-color:#7BE31D"/>
				<stop  offset="1" style="stop-color:#C9FF30"/>
			</linearGradient>
			<use xlink:href="#SVGID_1_"  style="overflow:visible;fill:url(#SVGID_2_);"/>
			<clipPath id="SVGID_3_">
				<use xlink:href="#SVGID_1_"  style="overflow:visible;"/>
			</clipPath>
		</g>
		<g>
			<defs>
				<path id="SVGID_4_" d="M32.7,1.8c11.1,0,20.1,9,20.1,20.1c0,7.2-3.8,13.6-9.6,17.1c-0.2,0.1-0.3,0.2-0.5,0.3
					c-0.2,0.1-0.4,0.2-0.6,0.3c-0.1,0.1-0.2,0.1-0.4,0.2c-2.3,1.1-4.2,3-4.9,5.5l-0.6,2.3l-1.1,4.5c0,0,0,0,0,0l-2,8l-2-8v0
					l-1.1-4.4l-0.6-2.2c-0.6-2.5-2.7-4.3-5.1-5.4c-0.1,0-0.2-0.1-0.3-0.2c-0.4-0.2-0.8-0.4-1.2-0.6c0,0,0,0,0,0
					c-6.1-3.5-10.2-10-10.2-17.5C12.6,10.8,21.6,1.8,32.7,1.8 M32.7,0.5c-11.8,0-21.4,9.6-21.4,21.4c0,7.7,4.2,14.8,10.8,18.6
					l0.3,0.2h0c0.3,0.2,0.7,0.4,1,0.5l0.1,0c0.1,0,0.2,0.1,0.2,0.1c1.4,0.6,3.7,2,4.3,4.5l0.6,2.2l1.1,4.4l2,8l1.3,4.9l1.3-4.9l2-8
					l1.1-4.5l0.6-2.3c0.6-2.5,2.9-4,4.2-4.6c0.1-0.1,0.2-0.1,0.3-0.2l0.1-0.1c0.2-0.1,0.4-0.2,0.7-0.4c0.2-0.1,0.4-0.2,0.5-0.3
					c6.4-3.9,10.2-10.7,10.2-18.2C54.1,10.1,44.5,0.5,32.7,0.5L32.7,0.5z"/>
			</defs>
			<linearGradient id="SVGID_5_" gradientUnits="userSpaceOnUse" x1="14.2608" y1="54.5194" x2="43.6799" y2="3.564">
				<stop  offset="0" style="stop-color:#7BE31D"/>
				<stop  offset="1" style="stop-color:#C9FF30"/>
			</linearGradient>
			<use xlink:href="#SVGID_4_"  style="overflow:visible;fill:url(#SVGID_5_);"/>
			<clipPath id="SVGID_6_">
				<use xlink:href="#SVGID_4_"  style="overflow:visible;"/>
			</clipPath>
		</g>
	</g>
	<g>
		<defs>
			<path id="SVGID_7_" d="M43.8,39.4c6-3.7,10.1-10.4,10.1-18c0-11.7-9.5-21.2-21.2-21.2S11.5,9.7,11.5,21.4
				c0,7.9,4.3,14.8,10.7,18.4c0,0,0,0,0,0c0.4,0.2,0.9,0.5,1.3,0.7c0.1,0.1,0.2,0.1,0.3,0.2c2.5,1.1,4.7,3,5.3,5.7l0.6,2.3l1.2,4.6
				v0l2.1,8.4l2.1-8.4v0l1.2-4.8l0.6-2.4c0.7-2.6,2.7-4.6,5.1-5.8c0.1-0.1,0.3-0.1,0.4-0.2c0.2-0.1,0.5-0.2,0.7-0.4
				C43.4,39.7,43.6,39.6,43.8,39.4z"/>
		</defs>
		<clipPath id="SVGID_8_">
			<use xlink:href="#SVGID_7_"  style="overflow:visible;"/>
		</clipPath>
		<rect x="7.7" y="-2.1" class="st0" width="50" height="67.9"/>
	</g>
	<g>
		<path class="st1" d="M41.9,26.3C41.9,26.3,41.9,26.3,41.9,26.3c-0.4-0.1-1,0-1.3,0.4c-0.1,0.1,0,0-0.1,0.1c-1.9,3.3-5.2,4.9-9,4.6
			c-3.3-0.2-6.8-2-8.6-5c-1.4-2.3-1-5,0.4-7.3c0.3-0.5-0.3-1-0.7-1.1c-0.3-0.1-0.6,0-0.8,0.2c-0.2,0.2-0.4,0.4-0.5,0.6
			c-1.9,3.2-1.5,6.9,0.9,9.7c2.4,2.8,6,4.5,9.7,4.8c4.3,0.4,8.4-1.4,10.4-5.3c0,0,0.1-0.1,0.1-0.1C42.7,27.2,42.4,26.6,41.9,26.3"/>
		<path class="st1" d="M30,12.9c0,1.3-1.7,2.4-3.7,2.4c-2,0-3.7-1.1-3.7-2.4c0-1.3,1.7-2.4,3.7-2.4C28.3,10.5,30,11.5,30,12.9z"/>
		<path class="st1" d="M49.3,20.7c0,1.3-1.7,2.4-3.7,2.4c-2,0-3.7-1.1-3.7-2.4c0-1.3,1.7-2.4,3.7-2.4C47.6,18.3,49.3,19.4,49.3,20.7
			z"/>
	</g>
	<linearGradient id="SVGID_9_" gradientUnits="userSpaceOnUse" x1="12.4545" y1="46.1931" x2="48.2769" y2="17.0874">
		<stop  offset="0" style="stop-color:#78B833"/>
		<stop  offset="0.2067" style="stop-color:#79C12C"/>
		<stop  offset="0.4552" style="stop-color:#7CD320"/>
		<stop  offset="0.733" style="stop-color:#7CD320"/>
		<stop  offset="0.9944" style="stop-color:#669F2A"/>
	</linearGradient>
	<path class="st2" d="M32.7,1.3C43.9,1.3,53,10.4,53,21.6c0,7.3-3.9,13.7-9.7,17.2c-0.2,0.1-0.3,0.2-0.5,0.3
		c-0.2,0.1-0.4,0.2-0.6,0.4c-0.1,0.1-0.3,0.1-0.4,0.2c-2.3,1.2-4.3,3-4.9,5.5l-0.6,2.3L35.1,52h0l-2.1,8.1L31,52l-1.1-4.4l-0.6-2.2
		c-0.6-2.5-2.7-4.3-5.1-5.4c-0.1,0-0.2-0.1-0.3-0.2c-0.4-0.2-0.8-0.4-1.2-0.7c0,0,0,0,0,0c-6.1-3.5-10.3-10.1-10.3-17.6
		C12.4,10.4,21.5,1.3,32.7,1.3 M32.7,0C20.8,0,11.1,9.7,11.1,21.6c0,7.7,4.2,14.9,10.9,18.7l0.3,0.2h0c0.3,0.2,0.7,0.4,1,0.5l0.1,0
		c0.1,0,0.2,0.1,0.3,0.1c1.4,0.6,3.7,2.1,4.4,4.5l0.6,2.2l1.1,4.4l2.1,8.1l1.3,5l1.3-5l2.1-8.1l1.2-4.6l0.6-2.3
		c0.6-2.5,2.9-4,4.2-4.7c0.1,0,0.2-0.1,0.3-0.2l0.1-0.1c0.2-0.1,0.5-0.2,0.7-0.4c0.1-0.1,0.3-0.2,0.4-0.3l0.1-0.1
		c6.4-4,10.3-10.8,10.3-18.4C54.3,9.7,44.6,0,32.7,0L32.7,0z"/>
</g>
</svg>
