<?xml version="1.0" encoding="utf-8"?>
<!-- Generator: Adobe Illustrator 25.2.3, SVG Export Plug-In . SVG Version: 6.00 Build 0)  -->
<svg version="1.1" id="圖層_1" xmlns="http://www.w3.org/2000/svg" xmlns:xlink="http://www.w3.org/1999/xlink" x="0px" y="0px"
	 viewBox="0 0 65.4 65.4" style="enable-background:new 0 0 65.4 65.4;" xml:space="preserve">
<style type="text/css">
	.st0{fill:url(#SVGID_1_);}
	.st1{fill:url(#SVGID_2_);}
	.st2{fill:#FFFFFF;}
</style>
<g>
	<g>
		<linearGradient id="SVGID_1_" gradientUnits="userSpaceOnUse" x1="32.7161" y1="52.3438" x2="32.7161" y2="4.5805">
			<stop  offset="0" style="stop-color:#8C1A29"/>
			<stop  offset="1" style="stop-color:#BE2D21"/>
		</linearGradient>
		<path class="st0" d="M43.3,39.6c5.8-3.6,9.7-9.9,9.7-17.2c0-11.2-9.1-20.3-20.3-20.3c-11.2,0-20.3,9.1-20.3,20.3
			c0,7.6,4.1,14.1,10.3,17.6c0,0,0,0,0,0c0.4,0.2,0.8,0.4,1.2,0.7c0.1,0,0.2,0.1,0.3,0.2c2.4,1.1,4.5,2.9,5.1,5.4l0.6,2.2l1.1,4.4
			l0,0l2.1,8.1l2.1-8.1h0l1.2-4.6l0.6-2.3c0.6-2.5,2.6-4.4,4.9-5.5c0.1-0.1,0.3-0.1,0.4-0.2c0.2-0.1,0.4-0.2,0.6-0.4
			C43,39.8,43.2,39.7,43.3,39.6z"/>
		<linearGradient id="SVGID_2_" gradientUnits="userSpaceOnUse" x1="18.155" y1="40.3744" x2="55.5531" y2="18.7826">
			<stop  offset="0" style="stop-color:#A22929"/>
			<stop  offset="0.1085" style="stop-color:#AB2D27"/>
			<stop  offset="0.2881" style="stop-color:#C53921"/>
			<stop  offset="0.4552" style="stop-color:#E2471B"/>
			<stop  offset="0.733" style="stop-color:#CE391E"/>
			<stop  offset="0.9944" style="stop-color:#A22929"/>
		</linearGradient>
		<path class="st1" d="M32.7,2.1C43.9,2.1,53,11.2,53,22.4c0,7.3-3.9,13.7-9.7,17.2c-0.2,0.1-0.3,0.2-0.5,0.3
			c-0.2,0.1-0.4,0.2-0.6,0.4c-0.1,0.1-0.3,0.1-0.4,0.2c-2.3,1.2-4.3,3-4.9,5.5l-0.6,2.3l-1.2,4.6h0l-2.1,8.1L31,52.9l-1.1-4.4
			l-0.6-2.2c-0.6-2.5-2.7-4.3-5.1-5.4c-0.1,0-0.2-0.1-0.3-0.2c-0.4-0.2-0.8-0.4-1.2-0.7c0,0,0,0,0,0C16.6,36.5,12.4,30,12.4,22.4
			C12.4,11.2,21.5,2.1,32.7,2.1 M32.7,0.8c-11.9,0-21.6,9.7-21.6,21.6c0,7.7,4.2,14.9,10.9,18.8l0.3,0.2h0c0.3,0.2,0.7,0.4,1,0.5
			l0.1,0c0.1,0,0.2,0.1,0.3,0.1c1.4,0.6,3.7,2.1,4.4,4.5l0.6,2.2l1.1,4.4l2.1,8.1l1.3,5l1.3-5l2.1-8.1l1.2-4.6l0.6-2.3
			c0.6-2.5,2.9-4,4.2-4.7c0.1,0,0.2-0.1,0.3-0.2l0.1-0.1c0.2-0.1,0.5-0.2,0.7-0.4c0.1-0.1,0.3-0.2,0.4-0.3l0.1-0.1
			c6.4-4,10.3-10.8,10.3-18.4C54.3,10.5,44.6,0.8,32.7,0.8L32.7,0.8z"/>
	</g>
	<path class="st2" d="M25.7,18.8c-0.5-0.1-1,0-1.5,0.3c-0.5,0.3-0.8,0.7-0.9,1.3c-0.1,0.5,0,1.1,0.3,1.5c0.3,0.5,0.7,0.8,1.3,0.9
		c3.6,0.8,6,4.4,5.2,8c-0.1,0.5,0,1.1,0.3,1.5c0.3,0.4,0.7,0.8,1.3,0.9c0.1,0,0.3,0,0.4,0c0.9,0,1.8-0.7,2-1.6
		C35.2,25.7,31.5,20,25.7,18.8z"/>
	<path class="st2" d="M38.4,19.6c-2.6-4-6.6-6.7-11.2-7.7c-0.5-0.1-1.1,0-1.5,0.3c-0.5,0.3-0.8,0.7-0.9,1.3
		c-0.2,1.1,0.5,2.1,1.5,2.4c7.4,1.6,12.2,8.9,10.6,16.4c-0.1,0.5,0,1.1,0.3,1.5c0.3,0.4,0.7,0.8,1.3,0.9c0.1,0,0.3,0,0.4,0
		c0.4,0,0.8-0.1,1.1-0.3c0.4-0.3,0.7-0.7,0.8-1.2c0,0,0-0.1,0-0.1C41.9,28.4,41,23.6,38.4,19.6z"/>
</g>
</svg>
